<svg xmlns="http://www.w3.org/2000/svg" viewBox="0 0 18 18"><defs><style>.cls-1{fill:#ff13dc;fill-opacity:0;}.cls-2{fill:#32cd32;}.cls-3{fill:none;}.cls-4{fill:#464646;}</style></defs><g id="Layer_2" data-name="Layer 2"><g id="check_all"><rect id="Canvas" class="cls-1" width="18" height="18"/><path class="cls-2" d="M13.32,10.06a3.25,3.25,0,1,0,3.25,3.25,3.25,3.25,0,0,0-3.25-3.25Zm-.86,5.23L11,13.78a.19.19,0,0,1,0-.26l.38-.38a.19.19,0,0,1,.26,0l1,1,2.23-2.23a.19.19,0,0,1,.26,0l.38.38a.19.19,0,0,1,0,.26l-2.74,2.74A.19.19,0,0,1,12.46,15.29Z"/><path class="cls-3" d="M3.74,7.78,9,10.46l5.26-2.68L16.56,9c.06,0,.09.07.09.11v-4s0,.08-.09.11L9.21,8.91a.45.45,0,0,1-.42,0L1.44,5.18c-.12-.07-.12-.17,0-.23L8.79,1.21A.5.5,0,0,1,9,1.16H1.35v7.9s0-.08.09-.11Z"/><path class="cls-3" d="M1.44,13.18q-.09-.06-.09-.12V17H9a.39.39,0,0,1-.21-.06Z"/><path class="cls-3" d="M9.21,16.91A.39.39,0,0,1,9,17h3a3.94,3.94,0,0,1-1.3-.8Z"/><path class="cls-3" d="M16.56,5c.06,0,.09.07.09.11V1.16H9a.5.5,0,0,1,.21.05Z"/><path class="cls-3" d="M15.16,9.89a4,4,0,0,1,1.49,1.41V9.06s0,.08-.09.12Z"/><path class="cls-3" d="M3.74,11.78,9,14.46l.53-.27a3.59,3.59,0,0,1-.12-.88,3.19,3.19,0,0,1,.06-.53l-.26.13a.45.45,0,0,1-.42,0L1.44,9.18q-.09-.06-.09-.12v4s0-.08.09-.11Z"/><path class="cls-4" d="M1.44,5c-.12.06-.12.16,0,.23L8.79,8.91a.45.45,0,0,0,.42,0l7.35-3.74c.06,0,.09-.07.09-.11h0s0-.08-.09-.11L9.21,1.21A.5.5,0,0,0,9,1.16H9a.5.5,0,0,0-.21.05Z"/><path class="cls-4" d="M10.69,16.17a3.84,3.84,0,0,1-1.16-2L9,14.46,3.74,11.78,1.44,13c-.06,0-.09.07-.09.11s0,.08.09.12l7.35,3.73a.4.4,0,0,0,.42,0Z"/><path class="cls-4" d="M8.79,12.91a.45.45,0,0,0,.42,0l.26-.13a3.89,3.89,0,0,1,3.85-3.37,3.82,3.82,0,0,1,1.84.48l1.4-.71q.09-.06.09-.12h0s0-.08-.09-.11l-2.3-1.17L9,10.46,3.74,7.78,1.44,9c-.06,0-.09.07-.09.11s0,.08.09.12Z"/></g></g></svg>