<svg xmlns="http://www.w3.org/2000/svg" viewBox="0 0 18 18"><defs><style>.cls-1{fill:#ff13dc;fill-opacity:0;}.cls-2{fill:#32cd32;}.cls-3{fill:#464646;}</style></defs><g id="Layer_2" data-name="Layer 2"><g id="check_one"><rect id="Canvas" class="cls-1" width="18" height="18"/><path class="cls-2" d="M13.32,10.06a3.25,3.25,0,1,0,3.25,3.25,3.25,3.25,0,0,0-3.25-3.25Zm-.86,5.23L11,13.78a.19.19,0,0,1,0-.26l.38-.38a.19.19,0,0,1,.26,0l1,1,2.23-2.23a.19.19,0,0,1,.26,0l.38.38a.19.19,0,0,1,0,.26l-2.74,2.74A.19.19,0,0,1,12.46,15.29Z"/><path class="cls-3" d="M16.65,9.06s0-.08-.09-.11L9.21,5.21a.51.51,0,0,0-.42,0L3.71,7.8,1.44,9c-.12.06-.12.16,0,.23l7.35,3.73a.45.45,0,0,0,.42,0l.26-.13a3.89,3.89,0,0,1,3.85-3.37,3.82,3.82,0,0,1,1.84.48l1.4-.71q.09-.06.09-.12Z"/></g></g></svg>