<?xml version="1.0" encoding="utf-8"?>
<!-- Generator: Adobe Illustrator 26.0.3, SVG Export Plug-In . SVG Version: 6.00 Build 0)  -->
<svg version="1.1" id="Layer_1" xmlns="http://www.w3.org/2000/svg" xmlns:xlink="http://www.w3.org/1999/xlink" x="0px" y="0px"
	 viewBox="0 0 18 18" style="enable-background:new 0 0 18 18;" xml:space="preserve">
<style type="text/css">
	.st0{fill:#FFFFFF;fill-opacity:0;}
	.st1{fill:#FFFFFF;}
</style>
<rect id="Canvas" class="st0" width="18" height="18"/>
<path class="st1" d="M9,6C7.3,6,6,7.3,6,9s1.3,3,3,3s3-1.3,3-3S10.7,6,9,6z"/>
<path class="st1" d="M16.5,4h-3l-1.7-1.8C11.7,2.1,11.6,2,11.4,2H6.6C6.4,2,6.3,2.1,6.2,2.2L4.5,4h-3C1.2,4,1,4.2,1,4.5v10
	C1,14.8,1.2,15,1.5,15h15c0.3,0,0.5-0.2,0.5-0.5v-10C17,4.2,16.8,4,16.5,4z M9,13.1c-2.3,0-4.1-1.8-4.1-4.1c0-2.3,1.8-4.1,4.1-4.1
	c2.3,0,4.1,1.8,4.1,4.1S11.3,13.1,9,13.1L9,13.1z"/>
</svg>
