<?xml version="1.0" encoding="UTF-8" standalone="no"?> <svg width="64" height="64" viewBox="0 0 64 64" fill="none" xmlns="http://www.w3.org/2000/svg">
<path d="M55 9.22988C53.7379 7.92856 52.227 6.89417 50.5573 6.18813C48.8875 5.48209 47.0929 5.11882 45.28 5.11988H45.17C41.3631 5.11593 37.7084 6.61447 35 9.28988L22.68 21.6399C20.458 23.8816 19.0645 26.8123 18.7283 29.9507C18.3921 33.089 19.1333 36.2484 20.83 38.9099C21.1056 39.3419 21.4755 39.7058 21.912 39.9743C22.3485 40.2428 22.8402 40.4088 23.35 40.4599C23.4765 40.4698 23.6036 40.4698 23.73 40.4599C24.65 40.4648 25.5344 40.1053 26.19 39.4599C26.7477 38.907 27.0994 38.18 27.1867 37.3995C27.274 36.6191 27.0917 35.8323 26.67 35.1699C25.8204 33.8426 25.4485 32.2653 25.6158 30.6983C25.783 29.1312 26.4794 27.668 27.59 26.5499L40.17 13.9999C40.8505 13.3239 41.6643 12.7969 42.5595 12.4526C43.4548 12.1083 44.4119 11.9541 45.37 11.9999C46.3325 12.041 47.2754 12.2849 48.1371 12.7158C48.9987 13.1466 49.7597 13.7546 50.37 14.4999C51.4441 15.873 51.9746 17.5937 51.8602 19.3332C51.7459 21.0728 50.9946 22.7092 49.75 23.9299L47.29 26.3899C46.9662 26.7115 46.7092 27.094 46.5338 27.5153C46.3585 27.9366 46.2682 28.3885 46.2682 28.8449C46.2682 29.3013 46.3585 29.7531 46.5338 30.1745C46.7092 30.5958 46.9662 30.9783 47.29 31.2999C47.9422 31.949 48.8249 32.3134 49.745 32.3134C50.6652 32.3134 51.5479 31.949 52.2 31.2999L54.83 28.6699C57.3937 26.0948 58.8471 22.6181 58.8789 18.9845C58.9106 15.351 57.5183 11.8494 55 9.22988V9.22988Z" fill="black"/>
<path d="M40.5401 23.4198C39.8914 23.3466 39.2352 23.4579 38.6469 23.7408C38.0586 24.0238 37.5621 24.4669 37.2143 25.0194C36.8665 25.5718 36.6817 26.2112 36.6809 26.864C36.6802 27.5168 36.8636 28.1566 37.2101 28.7098C38.0618 30.0376 38.4357 31.6159 38.2703 33.1846C38.1049 34.7534 37.41 36.2189 36.3001 37.3398L23.7201 49.9198C23.0386 50.5944 22.2246 51.1203 21.3296 51.4646C20.4346 51.8088 19.478 51.9638 18.5201 51.9198C17.5573 51.8756 16.6145 51.6293 15.753 51.1969C14.8916 50.7644 14.1308 50.1556 13.5201 49.4098C12.4453 48.0408 11.9142 46.3229 12.0286 44.5862C12.143 42.8494 12.895 41.2161 14.1401 39.9998L16.6001 37.5398C17.2446 36.8837 17.604 35.9996 17.6001 35.0798C17.6029 34.6258 17.516 34.1756 17.3444 33.7552C17.1728 33.3347 16.9198 32.9523 16.6001 32.6298C15.9405 31.9949 15.0606 31.6403 14.1451 31.6403C13.2296 31.6403 12.3497 31.9949 11.6901 32.6298L9.29012 34.9998C7.95287 36.3527 6.89608 37.9564 6.18046 39.7188C5.46484 41.4812 5.10449 43.3677 5.12012 45.2698C5.11771 47.0844 5.48034 48.8809 6.18641 50.5525C6.89249 52.224 7.92759 53.7365 9.23012 54.9998C11.8477 57.5051 15.3395 58.8901 18.9626 58.8602C22.5857 58.8303 26.0542 57.3879 28.6301 54.8398L41.2101 42.2498C43.424 40.0076 44.8123 37.0811 45.1484 33.948C45.4844 30.8149 44.7482 27.6605 43.0601 24.9998C42.7867 24.5632 42.4179 24.1943 41.9815 23.9206C41.545 23.647 41.0522 23.4758 40.5401 23.4198Z" fill="black"/>
</svg>
