<svg xmlns="http://www.w3.org/2000/svg" viewBox="0 0 18 18"><defs><style>.cls-1{fill:#ff13dc;fill-opacity:0;}.cls-2{fill:#ff4500;}.cls-3{fill:#464646;}</style></defs><g id="Layer_2" data-name="Layer 2"><g id="cross_one"><rect id="Canvas" class="cls-1" width="18" height="18"/><path class="cls-2" d="M13.32,10.06a3.25,3.25,0,1,0,3.25,3.25A3.25,3.25,0,0,0,13.32,10.06ZM15,14.55a.31.31,0,0,1-.44.44l-1.23-1.24L12.08,15h0a.31.31,0,0,1-.44-.44l1.24-1.24-1.24-1.23a.31.31,0,0,1,0-.44.31.31,0,0,1,.44,0l1.24,1.23,1.23-1.23h0a.3.3,0,0,1,.44,0,.3.3,0,0,1,0,.44l-1.23,1.23Z"/><path class="cls-3" d="M16.65,9h0s0-.08-.09-.11L9.21,5.15a.45.45,0,0,0-.42,0L1.44,8.89c-.12.06-.12.16,0,.22l7.35,3.74a.45.45,0,0,0,.42,0l.26-.13a3.91,3.91,0,0,1,3.85-3.31,3.84,3.84,0,0,1,1.78.44l1.46-.74C16.62,9.08,16.65,9,16.65,9Z"/></g></g></svg>