<svg width="512" height="512" xmlns="http://www.w3.org/2000/svg">

 <g>
  <title>Layer 1</title>
  <rect stroke-dasharray="2,2" stroke="#000" id="svg_5" height="299" width="299" y="56.21698" x="46.78302" stroke-width="5" fill="none"/>
  <path id="svg_7" d="m105.54971,171.35925l0,300.2682l362.99997,0l0,-300.2682l-362.99997,0zm305.86109,274.4952l-248.7222,0l0,-248.7222l248.7222,0l0,248.7222zm-188.22221,-151.24999c19.17178,0 34.727,-15.55522 34.727,-34.727c0,-19.18522 -15.55522,-34.727 -34.727,-34.727c-19.18522,0 -34.727,15.55522 -34.727,34.727c0,19.17178 15.54178,34.727 34.727,34.727zm174.79121,30.25l-66.10633,-66.10633l-92.99521,92.99521l-25.773,-25.773l-36.99911,36.99911l0,69.44055l221.87365,0l0,-107.55555z" stroke-width="2" stroke="#000" fill="#8691a0"/>
 </g>
</svg>