
                                <svg
                                    version="1.0"
                                    xmlns="http://www.w3.org/2000/svg"
                                    width="18.000000pt"
                                    height="18.000000pt"
                                    viewBox="0 0 127.000000 127.000000"
                                    preserveAspectRatio="xMidYMid meet"
                                    style="
                                        width: 32px;
                                        height: 27px;
                                        position: absolute;
                                        top: 3px;
                                        left: -1px;
                                    "
                                >
                                    <g
                                        transform="translate(0.000000,115.000000) scale(0.100000,-0.100000)"
                                        fill="#000000"
                                        stroke="none"
                                    >
                                        <path
                                            d="M577 1172 c-10 -11 -17 -36 -17 -60 l0 -42 -133 0 c-117 0 -136 -2
-150 -18 -15 -16 -17 -49 -17 -254 l0 -236 -24 -6 c-53 -13 -74 -67 -38 -99
15 -13 39 -17 115 -17 53 0 97 -4 97 -9 0 -5 -13 -69 -30 -143 -35 -155 -36
-169 -12 -191 45 -41 84 -11 104 78 l13 60 150 0 150 0 13 -60 c15 -67 35 -95
67 -95 27 0 55 29 55 56 0 11 -13 78 -30 150 -16 71 -30 135 -30 142 0 9 26
12 98 12 83 0 102 3 115 18 33 36 14 85 -39 98 l-24 6 0 238 c0 217 -2 238
-18 253 -15 14 -42 17 -150 17 l-132 0 0 43 c0 30 -6 49 -18 60 -26 23 -94 22
-115 -1z m393 -377 l0 -235 -335 0 -335 0 0 235 0 235 335 0 335 0 0 -235z
m77 -291 c3 -9 0 -20 -8 -25 -18 -11 -790 -11 -808 0 -8 5 -11 16 -8 25 6 14
49 16 412 16 363 0 406 -2 412 -16z m-293 -133 c9 -39 16 -75 16 -80 0 -7 -47
-11 -135 -11 -88 0 -135 4 -135 11 0 5 7 41 16 80 l16 69 103 0 103 0 16 -69z"
                                        />
                                    </g>
                                </svg>
