  <svg
                                    version="1.0"
                                    xmlns="http://www.w3.org/2000/svg"
                                    width="512.000000pt"
                                    height="512.000000pt"
                                    viewBox="0 0 512.000000 512.000000"
                                    preserveAspectRatio="xMidYMid meet"
                                    style="
                                        width: 32px;
                                        height: 32px;
                                        position: absolute;
                                        top: 0px;
                                        left: -1px;
                                    "
                                >
                                    <g
                                        transform="translate(0.000000,512.000000) scale(0.100000,-0.100000)"
                                        fill="#000000"
                                        stroke="none"
                                    >
                                        <path
                                            d="M920 4311 c-118 -36 -212 -129 -259 -254 -18 -50 -21 -79 -21 -217
l0 -160 80 0 80 0 0 128 c0 147 14 208 60 264 51 62 99 78 231 78 63 0 131 3
152 6 l37 7 0 78 0 79 -167 -1 c-93 0 -179 -4 -193 -8z"
                                        />
                                        <path
                                            d="M3840 4242 l0 -79 38 -7 c20 -3 88 -6 151 -6 132 0 180 -16 231 -78
46 -56 60 -117 60 -264 l0 -128 80 0 80 0 0 158 c0 131 -3 169 -19 215 -36
104 -104 182 -204 234 -50 27 -58 28 -234 31 l-183 4 0 -80z"
                                        />
                                        <path
                                            d="M2450 3404 c-252 -30 -471 -107 -694 -243 -199 -122 -420 -320 -578
-519 -32 -40 -58 -79 -58 -85 0 -20 105 -146 213 -256 296 -302 597 -483 937
-562 122 -29 364 -37 495 -16 318 51 613 200 903 457 102 90 249 249 310 334
l32 44 -47 62 c-67 90 -253 281 -358 368 -248 208 -538 351 -802 397 -90 16
-290 27 -353 19z m279 -317 c189 -54 340 -214 386 -409 79 -338 -192 -670
-549 -669 -158 0 -278 47 -390 151 -123 116 -177 238 -178 400 0 161 54 284
178 400 153 143 345 187 553 127z"
                                        />
                                        <path
                                            d="M2485 2841 c-59 -17 -86 -31 -129 -71 -153 -141 -103 -397 92 -471
116 -43 262 -7 333 82 46 59 62 106 63 184 0 52 -6 82 -23 117 -27 55 -94 121
-148 143 -45 19 -146 28 -188 16z"
                                        />
                                        <path
                                            d="M640 1280 c0 -138 3 -167 21 -217 40 -107 103 -178 202 -230 50 -27
58 -28 235 -31 l182 -4 0 80 0 79 -37 7 c-21 3 -89 6 -152 6 -132 0 -180 16
-231 78 -46 56 -60 117 -60 264 l0 128 -80 0 -80 0 0 -160z"
                                        />
                                        <path
                                            d="M4320 1312 c0 -147 -14 -208 -60 -264 -51 -62 -99 -78 -231 -78 -63
0 -131 -3 -151 -6 l-38 -7 0 -79 0 -80 183 4 c176 3 184 4 234 31 99 52 162
123 202 230 18 50 21 79 21 217 l0 160 -80 0 -80 0 0 -128z"
                                        />
                                    </g>
                                </svg>