<svg width="128" height="64" xmlns="http://www.w3.org/2000/svg" xml:space="preserve" style="fill-rule:evenodd;clip-rule:evenodd;stroke-linejoin:round;stroke-miterlimit:1.41421"><path d="M120 32.281c0-11.046-8.954-20-20-20H20c-11.046 0-20 8.954-20 20s8.954 20 20 20h80c11.046 0 20-8.954 20-20z" style="fill:#fff"/><path d="m100.129 12.281.129.002.129.002.129.002.129.004.128.005.128.005.128.006.128.007.127.008.128.008.127.009.127.01.126.011.127.012.126.012.126.013.126.014.125.015.125.016.125.016.125.017.125.018.124.018.124.02.124.02.123.021.123.021.123.023.123.023.123.024.122.024.122.026.121.026.122.027.121.027.121.028.12.029.12.03.12.031.12.031.119.032.119.032.119.034.119.034.118.034.118.036.117.036.118.037.117.038.116.038.117.039.116.039.115.041.116.041.115.042.114.042.115.043.114.044.113.044.227.091.225.094.224.096.222.099.221.101.219.104.218.107.216.109.215.112.213.114.212.117.21.119.209.121.207.124.205.127.204.129.202.131.2.134.199.136.197.138.195.14.193.143.192.145.19.148.188.149.186.152.184.154.183.156.18.158.179.161.176.162.175.165.172.166.171.169.169.17.166.173.165.175.162.176.161.179.158.18.156.183.154.184.152.186.149.188.148.19.145.192.143.193.14.195.138.197.136.199.134.2.131.202.129.204.127.205.124.207.121.209.119.21.117.212.114.213.112.215.109.216.107.218.104.219.101.221.099.222.096.224.094.225.091.226.044.114.044.114.043.115.042.114.042.115.041.116.041.115.039.116.039.117.038.116.038.117.037.118.036.117.035.118.035.118.034.119.034.119.032.119.032.119.031.12.031.12.03.12.029.12.028.121.027.121.027.122.026.121.026.122.024.122.024.123.023.123.023.123.021.123.021.123.02.124.02.124.018.124.018.125.017.125.016.125.016.125.015.125.014.126.013.126.012.126.012.127.011.126.01.127.009.127.008.128.008.127.007.128.006.128.005.128.005.128.003.129.003.129.002.128.002.13v.258l-.002.129-.002.129-.003.129-.003.129-.005.128-.005.128-.006.128-.007.128-.008.127-.008.128-.009.127-.01.127-.011.126-.012.127-.012.126-.013.126-.014.126-.015.125-.016.125-.016.125-.017.125-.018.125-.018.124-.02.124-.02.124-.021.123-.021.123-.023.123-.023.123-.024.122-.024.123-.026.122-.026.121-.027.122-.027.121-.028.121-.029.12-.03.12-.031.12-.031.12-.032.119-.032.119-.034.119-.034.119-.035.118-.035.118-.036.117-.037.118-.038.117-.038.116-.039.117-.039.116-.041.115-.041.116-.042.115-.042.114-.043.115-.044.114-.044.113-.091.227-.094.225-.096.223-.099.223-.101.22-.104.22-.107.218-.109.216-.112.215-.114.213-.117.212-.119.21-.121.209-.124.207-.127.205-.129.204-.131.202-.134.2-.136.199-.138.197-.14.195-.143.193-.145.192-.148.19-.149.188-.152.186-.154.184-.156.182-.158.181-.161.179-.162.176-.165.175-.166.172-.169.171-.171.169-.172.166-.175.165-.176.162-.179.161-.18.158-.183.156-.184.154-.186.152-.188.149-.19.148-.192.145-.193.143-.195.14-.197.138-.199.136-.2.134-.202.131-.204.129-.205.126-.207.125-.209.121-.21.119-.212.117-.213.114-.215.112-.216.109-.218.107-.219.104-.221.101-.222.099-.224.096-.225.094-.227.091-.113.044-.114.044-.115.043-.114.042-.115.042-.116.041-.115.04-.116.04-.117.039-.116.038-.117.038-.118.037-.117.036-.118.035-.118.035-.119.034-.119.034-.119.032-.119.032-.12.031-.12.031-.12.03-.12.029-.121.028-.121.027-.122.027-.121.026-.122.026-.122.024-.123.024-.123.023-.123.023-.123.021-.123.021-.124.02-.124.02-.124.018-.125.018-.125.017-.125.016-.125.016-.125.015-.126.014-.126.013-.126.012-.127.012-.126.011-.127.01-.127.009-.128.008-.127.008-.128.007-.128.006-.128.005-.128.005-.129.003-.129.003-.129.002-.129.002H19.871l-.129-.002-.129-.002-.129-.003-.129-.003-.128-.005-.128-.005-.128-.006-.128-.007-.127-.008-.128-.008-.127-.009-.127-.01-.126-.011-.127-.012-.126-.012-.126-.013-.126-.014-.125-.015-.125-.016-.125-.016-.125-.017-.125-.018-.124-.018-.124-.02-.124-.02-.123-.021-.123-.021-.123-.023-.123-.023-.123-.024-.122-.024-.122-.026-.121-.026-.122-.027-.121-.027-.121-.028-.12-.029-.12-.03-.12-.031-.12-.031-.119-.032-.119-.032-.119-.034-.119-.034-.118-.035-.118-.035-.117-.036-.118-.037-.117-.038-.116-.038-.117-.039-.116-.04-.115-.04-.116-.041-.115-.042-.114-.042-.115-.043-.114-.044-.113-.044-.227-.091-.225-.094-.224-.096-.222-.099-.221-.101-.219-.104-.218-.107-.216-.109-.215-.112-.213-.114-.212-.117-.21-.119-.209-.121-.207-.125-.205-.126-.204-.129-.202-.131-.2-.134-.199-.136-.197-.138-.195-.14-.193-.143-.192-.145-.19-.148-.188-.149-.186-.152-.184-.154-.183-.156-.18-.158-.179-.161-.176-.162-.175-.165-.172-.166-.171-.169-.169-.171-.166-.172-.165-.175-.162-.176-.161-.179-.158-.181-.156-.182-.154-.184-.152-.186-.149-.188-.148-.19-.145-.192-.143-.193-.14-.195-.138-.197-.136-.199-.134-.2-.131-.202-.129-.204-.127-.205-.124-.207-.121-.209-.119-.21-.117-.212-.114-.213-.112-.215-.109-.216-.107-.218-.104-.22-.101-.22-.099-.223-.096-.223-.094-.225-.091-.227-.044-.113-.044-.114-.043-.115-.042-.114-.042-.115-.041-.116-.041-.115-.039-.116-.039-.117-.038-.116-.038-.117-.037-.118-.036-.117-.035-.118-.035-.118-.034-.119-.034-.119-.032-.119-.032-.119-.031-.12-.031-.12-.03-.12-.029-.12-.028-.121-.027-.121-.027-.122-.026-.121-.026-.122-.024-.123-.024-.122-.023-.123-.023-.123-.021-.123-.021-.123-.02-.124-.02-.124-.018-.124-.018-.125-.017-.125-.016-.125-.016-.125-.015-.125-.014-.126-.013-.126-.012-.126-.012-.127-.011-.126-.01-.127-.009-.127-.008-.128-.008-.127-.007-.128-.006-.128-.005-.128-.005-.128-.003-.129-.003-.129-.002-.129L0 32.41v-.258l.002-.13.002-.128.003-.129.003-.129.005-.128.005-.128.006-.128.007-.128.008-.127.008-.128.009-.127.01-.127.011-.126.012-.127.012-.126.013-.126.014-.126.015-.125.016-.125.016-.125.017-.125.018-.125.018-.124.02-.124.02-.124.021-.123.021-.123.023-.123.023-.123.024-.123.024-.122.026-.122.026-.121.027-.122.027-.121.028-.121.029-.12.03-.12.031-.12.031-.12.032-.119.032-.119.034-.119.034-.119.035-.118.035-.118.036-.117.037-.118.038-.117.038-.116.039-.117.039-.116.041-.115.041-.116.042-.115.042-.114.043-.115.044-.114.044-.114.091-.226.094-.225.096-.224.099-.222.101-.221.104-.219.107-.218.109-.216.112-.215.114-.213.117-.212.119-.21.121-.209.124-.207.127-.205.129-.204.131-.202.134-.2.136-.199.138-.197.14-.195.143-.193.145-.192.148-.19.149-.188.152-.186.154-.184.156-.183.158-.18.161-.179.162-.176.165-.175.166-.173.169-.17.171-.169.172-.166.175-.165.176-.162.179-.161.18-.158.183-.156.184-.154.186-.152.188-.149.19-.148.192-.145.193-.143.195-.14.197-.138.199-.136.2-.134.202-.131.204-.129.205-.127.207-.124.209-.121.21-.119.212-.117.213-.114.215-.112.216-.109.218-.107.219-.104.221-.101.222-.099.224-.096.225-.094.227-.091.113-.044.114-.044.115-.043.114-.042.115-.042.116-.041.115-.041.116-.039.117-.039.116-.038.117-.038.118-.037.117-.036.118-.036.118-.034.119-.034.119-.034.119-.032.119-.032.12-.031.12-.031.12-.03.12-.029.121-.028.121-.027.122-.027.121-.026.122-.026.122-.024.123-.024.123-.023.123-.023.123-.021.123-.021.124-.02.124-.02.124-.018.125-.018.125-.017.125-.016.125-.016.125-.015.126-.014.126-.013.126-.012.127-.012.126-.011.127-.01.127-.009.128-.008.127-.008.128-.007.128-.006.128-.005.128-.005.129-.004.129-.002.129-.002.129-.002H100.129zm-80.126 2h-.12l-.116.001-.116.002-.117.003-.115.003-.116.004-.116.005-.115.005-.115.007-.115.007-.115.007-.114.009-.114.009-.114.009-.114.011-.114.011-.113.012-.113.012-.113.014-.113.014-.113.014-.112.016-.112.016-.112.016-.111.018-.112.018-.111.019-.111.019-.11.02-.111.021-.11.022-.11.022-.109.022-.11.024-.109.024-.109.025-.109.025-.108.026-.108.027-.108.028-.108.028-.107.028-.107.03-.107.03-.106.03-.107.031-.106.032-.105.033-.106.033-.105.034-.105.034-.104.035-.105.036-.104.036-.104.037-.103.038-.103.038-.103.039-.103.039-.099.039-.206.083-.203.084-.201.086-.2.089-.198.091-.198.094-.196.096-.194.098-.194.101-.191.102-.191.105-.189.108-.188.109-.186.112-.185.114-.183.116-.182.118-.181.12-.178.122-.178.125-.175.126-.175.129-.172.131-.171.132-.169.135-.168.137-.166.138-.164.141-.163.142-.16.145-.159.146-.158.148-.155.15-.154.152-.152.154-.15.155-.148.158-.146.159-.145.16-.142.163-.141.164-.138.166-.137.168-.135.169-.132.171-.131.172-.129.175-.126.175-.125.178-.122.178-.12.181-.118.182-.116.183-.114.185-.112.186-.109.188-.108.189-.105.19-.102.192-.101.194-.098.194-.096.196-.094.198-.091.198-.089.2-.086.201-.084.203-.083.206-.039.099-.039.103-.039.103-.038.103-.038.103-.037.104-.036.104-.036.104-.035.105-.034.105-.034.105-.033.106-.033.105-.031.106-.032.107-.03.106-.03.107-.03.107-.028.107-.028.108-.028.108-.027.108-.026.108-.025.109-.025.109-.024.109-.023.11-.023.109-.022.11-.022.11-.021.111-.02.11-.019.111-.019.111-.018.112-.017.111-.017.112-.016.112-.016.112-.014.113-.014.113-.014.113-.012.113-.012.113-.011.114-.011.114-.009.114-.009.114-.009.114-.007.115-.007.115-.007.115-.005.115-.005.116-.004.116-.003.115-.003.117-.002.116-.001.116v.234l.001.116.002.116.003.117.003.115.004.116.005.116.005.115.007.115.007.115.007.115.009.114.009.114.009.114.011.114.011.114.012.113.012.113.014.113.014.113.014.113.016.112.016.112.017.112.017.111.018.112.019.111.019.111.02.11.021.111.022.11.022.11.023.109.023.11.024.109.025.109.025.109.026.108.027.108.028.108.028.108.028.107.03.107.03.107.03.106.032.107.031.106.033.105.033.106.034.105.034.105.035.104.036.105.036.104.037.104.038.103.038.103.039.103.039.103.039.099.083.206.084.203.086.201.089.2.091.198.094.198.096.196.098.194.101.194.102.191.105.191.108.189.109.188.112.186.114.185.116.183.118.182.12.181.122.178.125.178.126.175.129.174.131.173.132.171.135.169.137.168.138.166.141.164.142.163.145.16.146.159.148.158.15.155.152.154.154.152.155.15.158.148.159.146.16.145.163.142.164.141.166.138.168.137.169.135.171.132.172.131.175.129.175.126.178.125.178.122.181.12.182.118.183.116.185.114.186.112.188.109.189.108.191.105.191.102.194.101.194.098.196.096.198.094.198.091.2.089.201.086.203.084.206.083.099.039.103.039.103.039.103.038.103.038.104.037.104.036.105.036.104.035.105.034.105.034.106.033.105.033.106.031.107.032.106.03.107.03.107.03.107.028.108.028.108.028.108.027.108.026.109.025.109.025.109.024.11.023.109.023.11.022.11.022.111.021.11.02.111.019.111.019.112.018.111.017.112.017.112.016.112.016.113.014.113.014.113.013.113.013.113.012.114.011.114.011.114.009.114.009.114.009.115.007.115.007.115.006.115.006.116.005.116.004.115.003.117.003.116.001.116.002H100.117l.116-.002.116-.001.117-.003.115-.003.116-.004.116-.005.115-.006.115-.006.115-.007.115-.007.114-.009.114-.009.114-.009.114-.011.114-.011.113-.012.113-.013.113-.013.113-.014.113-.014.112-.016.112-.016.112-.017.111-.017.112-.018.111-.019.111-.019.11-.02.111-.021.11-.022.11-.022.109-.023.11-.023.109-.024.109-.025.109-.025.108-.026.108-.027.108-.028.108-.028.107-.028.107-.03.107-.03.106-.03.107-.032.106-.031.105-.033.106-.033.105-.034.105-.034.104-.035.105-.036.104-.036.104-.037.103-.038.103-.038.103-.039.103-.039.099-.039.206-.083.203-.084.201-.086.2-.089.198-.091.198-.094.196-.096.194-.098.194-.101.191-.102.191-.105.189-.108.188-.109.186-.112.185-.114.183-.116.182-.118.181-.12.178-.122.178-.125.175-.126.174-.129.173-.131.171-.132.169-.135.168-.137.166-.138.164-.141.163-.142.16-.145.159-.146.158-.148.155-.15.154-.152.152-.154.15-.155.148-.158.146-.159.145-.16.142-.163.141-.164.138-.166.137-.168.135-.169.132-.171.131-.173.129-.174.126-.175.125-.178.122-.178.12-.181.118-.182.116-.183.114-.185.112-.186.109-.188.108-.189.105-.191.102-.192.101-.193.098-.194.096-.196.094-.198.091-.198.089-.2.086-.201.084-.203.083-.206.039-.099.039-.103.039-.103.038-.103.038-.103.037-.104.036-.104.036-.105.035-.104.034-.105.034-.105.033-.106.033-.105.032-.106.031-.107.03-.106.03-.107.03-.107.028-.108.028-.107.028-.108.027-.108.026-.108.025-.109.025-.109.024-.109.023-.11.023-.109.022-.11.022-.11.021-.111.02-.11.019-.111.019-.111.018-.112.017-.111.017-.112.016-.112.016-.112.014-.113.014-.113.014-.113.012-.113.012-.113.011-.114.011-.114.009-.114.009-.114.009-.114.007-.115.007-.115.007-.115.005-.115.005-.116.004-.116.003-.115.003-.117.002-.116.001-.116v-.234l-.001-.116-.002-.117-.003-.116-.003-.115-.004-.116-.005-.116-.005-.115-.007-.115-.007-.115-.007-.115-.009-.114-.009-.114-.009-.114-.011-.114-.011-.114-.012-.113-.012-.113-.014-.113-.014-.113-.014-.113-.016-.112-.016-.112-.017-.112-.017-.111-.018-.112-.019-.111-.019-.111-.02-.11-.021-.111-.022-.11-.022-.11-.023-.109-.023-.11-.024-.109-.025-.109-.025-.109-.026-.108-.027-.108-.028-.108-.028-.108-.028-.107-.03-.107-.03-.107-.03-.106-.031-.107-.032-.106-.033-.105-.033-.106-.034-.105-.034-.105-.035-.105-.036-.104-.036-.104-.037-.104-.038-.103-.038-.103-.039-.103-.039-.103-.039-.099-.083-.206-.084-.203-.086-.201-.089-.2-.091-.198-.094-.198-.096-.196-.098-.194-.101-.194-.102-.192-.105-.19-.108-.189-.109-.188-.112-.186-.114-.185-.116-.183-.118-.182-.12-.181-.122-.178-.125-.178-.126-.175-.129-.175-.131-.172-.132-.171-.135-.169-.137-.168-.138-.166-.141-.164-.142-.163-.145-.16-.146-.159-.148-.158-.15-.155-.152-.154-.154-.152-.155-.15-.158-.148-.159-.146-.16-.145-.163-.142-.164-.141-.166-.138-.168-.137-.169-.135-.171-.132-.173-.131-.174-.129-.175-.126-.178-.125-.178-.122-.181-.12-.182-.118-.183-.116-.185-.114-.186-.112-.188-.109-.189-.108-.191-.105-.191-.102-.194-.101-.194-.098-.196-.096-.198-.094-.198-.091-.2-.089-.201-.086-.203-.084-.206-.083-.099-.039-.103-.04-.103-.038-.103-.038-.103-.038-.104-.037-.104-.036-.105-.036-.104-.035-.105-.034-.105-.034-.106-.033-.105-.033-.106-.032-.107-.031-.106-.03-.107-.03-.107-.03-.107-.028-.108-.028-.108-.028-.108-.027-.108-.026-.109-.025-.109-.025-.109-.024-.11-.024-.109-.022-.11-.022-.11-.022-.111-.021-.11-.02-.111-.019-.111-.019-.112-.018-.111-.018-.112-.016-.112-.016-.112-.016-.113-.014-.113-.014-.113-.014-.113-.012-.113-.012-.114-.011-.114-.011-.114-.009-.114-.009-.114-.009-.115-.007-.115-.007-.115-.007-.115-.005-.116-.005-.116-.004-.115-.003-.117-.003-.116-.002-.116-.001H20.003z" style="fill:#7fadf2"/><path d="M29.239 19.897v9.121h3.909c2.058 0 3.283-.926 3.283-2.476 0-1.251-.769-2.111-2.085-2.306 1.069-.222 1.681-.991 1.681-2.059 0-1.433-1.107-2.28-2.945-2.28h-3.843zm1.042 1.003h2.749c1.225 0 1.942.521 1.942 1.446 0 .952-.717 1.486-1.942 1.486h-2.749V20.9zm0 3.922h2.749c1.486 0 2.346.586 2.346 1.577 0 1.042-.86 1.628-2.346 1.628h-2.749v-3.205zM41.135 22.125c-1.994 0-3.401 1.42-3.401 3.466 0 2.045 1.394 3.466 3.414 3.466 1.146 0 2.111-.417 2.762-1.147l-.56-.599c-.534.56-1.277.86-2.124.86-1.329 0-2.306-.847-2.489-2.189h5.603c.104-2.333-.99-3.87-3.205-3.857zm-2.398 3.023c.157-1.303 1.095-2.15 2.398-2.15 1.342 0 2.228.834 2.293 2.15h-4.691zM48.796 22.125c-1.98 0-3.4 1.42-3.4 3.466 0 2.045 1.407 3.466 3.4 3.466 1.186 0 2.137-.443 2.75-1.186l-.587-.625c-.482.573-1.225.886-2.124.886-1.42 0-2.436-1.043-2.436-2.541 0-1.499 1.016-2.528 2.436-2.528.834 0 1.525.3 2.046.795l.56-.717c-.625-.651-1.537-1.029-2.645-1.016zM55.858 22.125c-2.032 0-3.479 1.407-3.479 3.453 0 2.058 1.447 3.479 3.479 3.479 2.033 0 3.479-1.421 3.479-3.479 0-2.046-1.446-3.453-3.479-3.453zm0 .925c1.434 0 2.463 1.042 2.463 2.541 0 1.511-1.029 2.554-2.463 2.554-1.433 0-2.462-1.043-2.462-2.554 0-1.499 1.029-2.541 2.462-2.541zM69.917 22.112c-1.316.013-2.28.586-2.71 1.798-.286-1.134-1.172-1.798-2.462-1.798-1.238.013-2.163.521-2.619 1.589v-1.55h-1.004v6.867h1.004v-3.375c0-1.472.847-2.489 2.254-2.528 1.198 0 1.902.717 1.902 1.942v3.961h1.029v-3.375c0-1.472.821-2.489 2.242-2.528 1.185 0 1.902.717 1.902 1.942v3.961h1.016v-4.235c0-1.655-.951-2.671-2.554-2.671zM77.435 22.125c-1.993 0-3.4 1.42-3.4 3.466 0 2.045 1.394 3.466 3.414 3.466 1.146 0 2.11-.417 2.762-1.147l-.56-.599c-.535.56-1.277.86-2.124.86-1.329 0-2.307-.847-2.489-2.189h5.603c.104-2.333-.99-3.87-3.206-3.857zm-2.397 3.023c.156-1.303 1.095-2.15 2.397-2.15 1.343 0 2.229.834 2.294 2.15h-4.691zM90.218 29.018h.99l-.013-4.535c-.013-1.472-.951-2.371-2.645-2.371-1.173 0-1.916.339-2.802.925l.43.743c.717-.495 1.421-.782 2.176-.782 1.212 0 1.838.599 1.838 1.603v.403h-2.255c-1.615.013-2.566.769-2.566 1.968 0 1.186.912 2.098 2.332 2.098 1.094 0 1.967-.365 2.515-1.108v1.056zm-2.32-.834c-.964 0-1.576-.495-1.576-1.251 0-.756.599-1.108 1.746-1.108h2.137v.821c-.261.951-1.147 1.538-2.307 1.538z" style="fill:#5e6b7b;fill-rule:nonzero"/><path d="M33.163 33.341v10.914h5.348c2.573 0 4.194-1.17 4.194-3.025 0-1.419-.873-2.495-2.245-2.76 1.154-.327 1.871-1.247 1.871-2.401 0-1.668-1.559-2.728-4.007-2.728h-5.161zm2.76 2.12h2.245c.811 0 1.325.406 1.325 1.107 0 .702-.514 1.138-1.325 1.138h-2.245v-2.245zm0 4.241h2.245c1.029 0 1.668.452 1.668 1.185 0 .779-.639 1.232-1.668 1.232h-2.245v-2.417zM48.068 35.726c-1.403 0-2.588.343-3.897.951l.764 1.778c.888-.452 1.808-.702 2.51-.702 1.091 0 1.637.499 1.637 1.325v.125h-2.214c-2.089.016-3.227.951-3.227 2.541 0 1.544 1.091 2.635 2.884 2.635 1.138 0 2.027-.374 2.572-1.091v.967h2.635v-5.488c-.015-1.903-1.356-3.041-3.664-3.041zm-.717 6.829c-.748 0-1.185-.39-1.185-.998 0-.623.406-.904 1.216-.904h1.7v.748c-.172.686-.889 1.154-1.731 1.154zM57.314 35.757c-2.604 0-4.366 1.731-4.366 4.319 0 2.557 1.747 4.272 4.335 4.272 1.777 0 3.134-.717 3.82-1.949l-1.965-1.153c-.359.639-.951.951-1.715.951-1.045 0-1.762-.842-1.762-2.136 0-1.263.717-2.121 1.762-2.121.733 0 1.31.328 1.699.873l1.934-1.169c-.733-1.201-2.074-1.887-3.742-1.887zM66.092 41.012l1.824 3.243h3.196l-3.181-5.177 3.087-3.227h-3.055l-2.776 2.947v-6.112H62.49v11.569h2.697v-2.292l.905-.951zM75.477 35.757c-2.603 0-4.381 1.715-4.381 4.319 0 2.557 1.715 4.272 4.459 4.272 1.544 0 2.807-.546 3.664-1.481l-1.418-1.388c-.562.562-1.279.858-2.012.858-.998 0-1.715-.561-1.98-1.559h5.909c.187-3.072-1.278-5.021-4.241-5.021zm-1.715 3.571c.172-1.014.811-1.7 1.747-1.7.966 0 1.621.671 1.621 1.7h-3.368zM83.881 35.851h-2.697v8.404h2.697v-4.319c.14-1.185 1.169-1.918 2.729-1.778v-2.432c-1.201.016-2.152.562-2.729 1.544v-1.419z" style="fill:#7fadf2;fill-rule:nonzero"/></svg>